<svg width="213" height="36" viewBox="0 0 213 36" fill="none" xmlns="http://www.w3.org/2000/svg">
<path d="M23.0855 35L14.0135 22.724H10.3775L21.3935 8.72H28.1615L18.2615 21.284L18.1895 18.728L30.2135 35H23.0855ZM5.80552 35V8.72H11.7095V35H5.80552ZM37.9158 35.18V30.572H44.0718C45.1758 30.572 46.0038 30.284 46.5558 29.708C47.1078 29.132 47.3838 28.316 47.3838 27.26C47.3838 26.204 47.1078 25.4 46.5558 24.848C46.0038 24.272 45.1758 23.984 44.0718 23.984H37.9158V20.42H43.7838C45.6078 20.42 47.2278 20.648 48.6438 21.104C50.0598 21.536 51.1758 22.244 51.9918 23.228C52.8078 24.212 53.2158 25.544 53.2158 27.224V27.728C53.2158 29.288 52.8558 30.632 52.1358 31.76C51.4158 32.864 50.3598 33.716 48.9678 34.316C47.5758 34.892 45.8478 35.18 43.7838 35.18H37.9158ZM32.8758 35.18V8.504H38.6358V35.18H32.8758ZM37.9158 23.048V19.52H43.0998C44.2278 19.52 45.0438 19.232 45.5478 18.656C46.0518 18.08 46.3038 17.312 46.3038 16.352C46.3038 15.344 46.0518 14.552 45.5478 13.976C45.0438 13.4 44.2278 13.112 43.0998 13.112H37.9158V8.504H42.7398C45.7638 8.504 48.0798 9.14 49.6878 10.412C51.3198 11.684 52.1358 13.496 52.1358 15.848V16.388C52.1358 18.02 51.7158 19.328 50.8758 20.312C50.0598 21.296 48.9438 22.004 47.5278 22.436C46.1358 22.844 44.5398 23.048 42.7398 23.048H37.9158ZM57.8016 35V8.504H63.7056V35H57.8016ZM73.7496 35L66.0456 23.696H72.5256L80.5896 35H73.7496ZM62.1216 26.576V21.932H68.6016C69.4656 21.932 70.2096 21.764 70.8336 21.428C71.4816 21.068 71.9736 20.576 72.3096 19.952C72.6696 19.304 72.8496 18.56 72.8496 17.72C72.8496 16.88 72.6696 16.148 72.3096 15.524C71.9736 14.876 71.4816 14.384 70.8336 14.048C70.2096 13.688 69.4656 13.508 68.6016 13.508H62.1216V8.504H68.1336C70.3176 8.504 72.2136 8.84 73.8216 9.512C75.4296 10.16 76.6656 11.132 77.5296 12.428C78.3936 13.724 78.8256 15.356 78.8256 17.324V17.9C78.8256 19.844 78.3816 21.464 77.4936 22.76C76.6296 24.032 75.3936 24.992 73.7856 25.64C72.2016 26.264 70.3176 26.576 68.1336 26.576H62.1216Z" fill="black"/>
<path d="M61.2137 35V8.504H67.1177V35H61.2137ZM77.1617 35L69.4577 23.696H75.9377L84.0017 35H77.1617ZM65.5337 26.576V21.932H72.0137C72.8777 21.932 73.6217 21.764 74.2457 21.428C74.8937 21.068 75.3857 20.576 75.7217 19.952C76.0817 19.304 76.2617 18.56 76.2617 17.72C76.2617 16.88 76.0817 16.148 75.7217 15.524C75.3857 14.876 74.8937 14.384 74.2457 14.048C73.6217 13.688 72.8777 13.508 72.0137 13.508H65.5337V8.504H71.5457C73.7297 8.504 75.6257 8.84 77.2337 9.512C78.8417 10.16 80.0777 11.132 80.9417 12.428C81.8057 13.724 82.2377 15.356 82.2377 17.324V17.9C82.2377 19.844 81.7937 21.464 80.9057 22.76C80.0417 24.032 78.8057 24.992 77.1977 25.64C75.6137 26.264 73.7297 26.576 71.5457 26.576H65.5337ZM99.1026 35V29.168H98.1306V22.832C98.1306 21.824 97.8906 21.068 97.4106 20.564C96.9306 20.06 96.1626 19.808 95.1066 19.808C94.5786 19.808 93.8826 19.82 93.0186 19.844C92.1546 19.868 91.2666 19.904 90.3546 19.952C89.4426 20 88.6146 20.048 87.8706 20.096V15.236C88.4226 15.188 89.0706 15.14 89.8146 15.092C90.5586 15.044 91.3266 15.008 92.1186 14.984C92.9106 14.96 93.6546 14.948 94.3506 14.948C96.3666 14.948 98.0586 15.236 99.4266 15.812C100.819 16.388 101.875 17.264 102.595 18.44C103.315 19.592 103.675 21.08 103.675 22.904V35H99.1026ZM92.8026 35.504C91.3866 35.504 90.1386 35.252 89.0586 34.748C88.0026 34.244 87.1746 33.524 86.5746 32.588C85.9746 31.628 85.6746 30.488 85.6746 29.168C85.6746 27.728 86.0466 26.552 86.7906 25.64C87.5346 24.704 88.5786 24.02 89.9226 23.588C91.2666 23.132 92.8146 22.904 94.5666 22.904H98.7786V26.108H94.5306C93.5226 26.108 92.7426 26.36 92.1906 26.864C91.6626 27.344 91.3986 28.004 91.3986 28.844C91.3986 29.636 91.6626 30.284 92.1906 30.788C92.7426 31.268 93.5226 31.508 94.5306 31.508C95.1786 31.508 95.7546 31.4 96.2586 31.184C96.7866 30.944 97.2186 30.548 97.5546 29.996C97.8906 29.444 98.0826 28.676 98.1306 27.692L99.4986 29.132C99.3786 30.5 99.0426 31.652 98.4906 32.588C97.9626 33.524 97.2186 34.244 96.2586 34.748C95.3226 35.252 94.1706 35.504 92.8026 35.504ZM108.562 35V15.272H113.134V23.768H112.81C112.81 21.752 113.062 20.072 113.566 18.728C114.07 17.384 114.826 16.376 115.834 15.704C116.842 15.008 118.078 14.66 119.542 14.66H119.794C121.282 14.66 122.518 15.008 123.502 15.704C124.51 16.376 125.266 17.384 125.77 18.728C126.298 20.072 126.562 21.752 126.562 23.768H125.158C125.158 21.752 125.41 20.072 125.914 18.728C126.442 17.384 127.21 16.376 128.218 15.704C129.226 15.008 130.462 14.66 131.926 14.66H132.178C133.666 14.66 134.914 15.008 135.922 15.704C136.954 16.376 137.734 17.384 138.262 18.728C138.79 20.072 139.054 21.752 139.054 23.768V35H133.294V23.444C133.294 22.364 133.006 21.488 132.43 20.816C131.878 20.144 131.086 19.808 130.054 19.808C129.022 19.808 128.206 20.156 127.606 20.852C127.006 21.524 126.706 22.424 126.706 23.552V35H120.91V23.444C120.91 22.364 120.622 21.488 120.046 20.816C119.494 20.144 118.714 19.808 117.706 19.808C116.65 19.808 115.822 20.156 115.222 20.852C114.622 21.524 114.322 22.424 114.322 23.552V35H108.562ZM155.88 35V29.168H154.908V22.832C154.908 21.824 154.668 21.068 154.188 20.564C153.708 20.06 152.94 19.808 151.884 19.808C151.356 19.808 150.66 19.82 149.796 19.844C148.932 19.868 148.044 19.904 147.132 19.952C146.22 20 145.392 20.048 144.648 20.096V15.236C145.2 15.188 145.848 15.14 146.592 15.092C147.336 15.044 148.104 15.008 148.896 14.984C149.688 14.96 150.432 14.948 151.128 14.948C153.144 14.948 154.836 15.236 156.204 15.812C157.596 16.388 158.652 17.264 159.372 18.44C160.092 19.592 160.452 21.08 160.452 22.904V35H155.88ZM149.58 35.504C148.164 35.504 146.916 35.252 145.836 34.748C144.78 34.244 143.952 33.524 143.352 32.588C142.752 31.628 142.452 30.488 142.452 29.168C142.452 27.728 142.824 26.552 143.568 25.64C144.312 24.704 145.356 24.02 146.7 23.588C148.044 23.132 149.592 22.904 151.344 22.904H155.556V26.108H151.308C150.3 26.108 149.52 26.36 148.968 26.864C148.44 27.344 148.176 28.004 148.176 28.844C148.176 29.636 148.44 30.284 148.968 30.788C149.52 31.268 150.3 31.508 151.308 31.508C151.956 31.508 152.532 31.4 153.036 31.184C153.564 30.944 153.996 30.548 154.332 29.996C154.668 29.444 154.86 28.676 154.908 27.692L156.276 29.132C156.156 30.5 155.82 31.652 155.268 32.588C154.74 33.524 153.996 34.244 153.036 34.748C152.1 35.252 150.948 35.504 149.58 35.504ZM166.275 35V15.272H172.035V35H166.275ZM163.647 19.52V15.272H172.035V19.52H163.647ZM168.507 13.328C167.427 13.328 166.623 13.052 166.095 12.5C165.591 11.924 165.339 11.204 165.339 10.34C165.339 9.452 165.591 8.732 166.095 8.18C166.623 7.604 167.427 7.316 168.507 7.316C169.587 7.316 170.379 7.604 170.883 8.18C171.411 8.732 171.675 9.452 171.675 10.34C171.675 11.204 171.411 11.924 170.883 12.5C170.379 13.052 169.587 13.328 168.507 13.328ZM184.85 35.612C182.042 35.612 179.846 35.036 178.262 33.884C176.678 32.732 175.838 31.112 175.742 29.024H180.854C180.95 29.648 181.322 30.212 181.97 30.716C182.642 31.196 183.638 31.436 184.958 31.436C185.966 31.436 186.794 31.268 187.442 30.932C188.114 30.572 188.45 30.068 188.45 29.42C188.45 28.844 188.198 28.388 187.694 28.052C187.19 27.692 186.29 27.44 184.994 27.296L183.446 27.152C181.07 26.912 179.282 26.252 178.082 25.172C176.906 24.092 176.318 22.712 176.318 21.032C176.318 19.64 176.666 18.476 177.362 17.54C178.058 16.604 179.018 15.896 180.242 15.416C181.49 14.936 182.906 14.696 184.49 14.696C187.034 14.696 189.086 15.26 190.646 16.388C192.206 17.492 193.022 19.1 193.094 21.212H187.982C187.886 20.564 187.55 20.024 186.974 19.592C186.398 19.136 185.546 18.908 184.418 18.908C183.53 18.908 182.822 19.076 182.294 19.412C181.766 19.748 181.502 20.204 181.502 20.78C181.502 21.332 181.73 21.752 182.186 22.04C182.642 22.328 183.386 22.532 184.418 22.652L185.966 22.796C188.39 23.06 190.274 23.732 191.618 24.812C192.962 25.892 193.634 27.344 193.634 29.168C193.634 30.488 193.274 31.64 192.554 32.624C191.834 33.584 190.814 34.328 189.494 34.856C188.174 35.36 186.626 35.612 184.85 35.612Z" fill="#5061FC"/>
</svg>
