<svg width="141" height="20" viewBox="0 0 141 20" fill="none" xmlns="http://www.w3.org/2000/svg">
<path d="M11.8982 19L5.85016 10.816H3.42616L10.7702 1.48H15.2822L8.68216 9.856L8.63416 8.152L16.6502 19H11.8982ZM0.378156 19V1.48H4.31416V19H0.378156ZM21.785 19.12V16.048H25.889C26.625 16.048 27.177 15.856 27.545 15.472C27.913 15.088 28.097 14.544 28.097 13.84C28.097 13.136 27.913 12.6 27.545 12.232C27.177 11.848 26.625 11.656 25.889 11.656H21.785V9.28H25.697C26.913 9.28 27.993 9.432 28.937 9.736C29.881 10.024 30.625 10.496 31.169 11.152C31.713 11.808 31.985 12.696 31.985 13.816V14.152C31.985 15.192 31.745 16.088 31.265 16.84C30.785 17.576 30.081 18.144 29.153 18.544C28.225 18.928 27.073 19.12 25.697 19.12H21.785ZM18.425 19.12V1.336H22.265V19.12H18.425ZM21.785 11.032V8.68H25.241C25.993 8.68 26.537 8.488 26.873 8.104C27.209 7.72 27.377 7.208 27.377 6.568C27.377 5.896 27.209 5.368 26.873 4.984C26.537 4.6 25.993 4.408 25.241 4.408H21.785V1.336H25.001C27.017 1.336 28.561 1.76 29.633 2.608C30.721 3.456 31.265 4.664 31.265 6.232V6.592C31.265 7.68 30.985 8.552 30.425 9.208C29.881 9.864 29.137 10.336 28.193 10.624C27.265 10.896 26.201 11.032 25.001 11.032H21.785ZM35.0422 19V1.336H38.9782V19H35.0422ZM45.6742 19L40.5382 11.464H44.8582L50.2342 19H45.6742ZM37.9222 13.384V10.288H42.2422C42.8182 10.288 43.3142 10.176 43.7302 9.952C44.1622 9.712 44.4902 9.384 44.7142 8.968C44.9542 8.536 45.0742 8.04 45.0742 7.48C45.0742 6.92 44.9542 6.432 44.7142 6.016C44.4902 5.584 44.1622 5.256 43.7302 5.032C43.3142 4.792 42.8182 4.672 42.2422 4.672H37.9222V1.336H41.9302C43.3862 1.336 44.6502 1.56 45.7222 2.008C46.7942 2.44 47.6182 3.088 48.1942 3.952C48.7702 4.816 49.0582 5.904 49.0582 7.216V7.6C49.0582 8.896 48.7622 9.976 48.1702 10.84C47.5942 11.688 46.7702 12.328 45.6982 12.76C44.6422 13.176 43.3862 13.384 41.9302 13.384H37.9222Z" fill="black"/>
<path d="M52.5735 19V1.336H56.5095V19H52.5735ZM63.2055 19L58.0695 11.464H62.3895L67.7655 19H63.2055ZM55.4535 13.384V10.288H59.7735C60.3495 10.288 60.8455 10.176 61.2615 9.952C61.6935 9.712 62.0215 9.384 62.2455 8.968C62.4855 8.536 62.6055 8.04 62.6055 7.48C62.6055 6.92 62.4855 6.432 62.2455 6.016C62.0215 5.584 61.6935 5.256 61.2615 5.032C60.8455 4.792 60.3495 4.672 59.7735 4.672H55.4535V1.336H59.4615C60.9175 1.336 62.1815 1.56 63.2535 2.008C64.3255 2.44 65.1495 3.088 65.7255 3.952C66.3015 4.816 66.5895 5.904 66.5895 7.216V7.6C66.5895 8.896 66.2935 9.976 65.7015 10.84C65.1255 11.688 64.3015 12.328 63.2295 12.76C62.1735 13.176 60.9175 13.384 59.4615 13.384H55.4535ZM77.8327 19V15.112H77.1847V10.888C77.1847 10.216 77.0247 9.712 76.7047 9.376C76.3847 9.04 75.8727 8.872 75.1687 8.872C74.8167 8.872 74.3527 8.88 73.7767 8.896C73.2007 8.912 72.6087 8.936 72.0007 8.968C71.3927 9 70.8407 9.032 70.3447 9.064V5.824C70.7127 5.792 71.1447 5.76 71.6407 5.728C72.1367 5.696 72.6487 5.672 73.1767 5.656C73.7047 5.64 74.2007 5.632 74.6647 5.632C76.0087 5.632 77.1367 5.824 78.0487 6.208C78.9767 6.592 79.6807 7.176 80.1607 7.96C80.6407 8.728 80.8807 9.72 80.8807 10.936V19H77.8327ZM73.6327 19.336C72.6887 19.336 71.8567 19.168 71.1367 18.832C70.4327 18.496 69.8807 18.016 69.4807 17.392C69.0807 16.752 68.8807 15.992 68.8807 15.112C68.8807 14.152 69.1287 13.368 69.6247 12.76C70.1207 12.136 70.8167 11.68 71.7127 11.392C72.6087 11.088 73.6407 10.936 74.8087 10.936H77.6167V13.072H74.7847C74.1127 13.072 73.5927 13.24 73.2247 13.576C72.8727 13.896 72.6967 14.336 72.6967 14.896C72.6967 15.424 72.8727 15.856 73.2247 16.192C73.5927 16.512 74.1127 16.672 74.7847 16.672C75.2167 16.672 75.6007 16.6 75.9367 16.456C76.2887 16.296 76.5767 16.032 76.8007 15.664C77.0247 15.296 77.1527 14.784 77.1847 14.128L78.0967 15.088C78.0167 16 77.7927 16.768 77.4247 17.392C77.0727 18.016 76.5767 18.496 75.9367 18.832C75.3127 19.168 74.5447 19.336 73.6327 19.336ZM84.1387 19V5.848H87.1867V11.512H86.9707C86.9707 10.168 87.1387 9.048 87.4747 8.152C87.8107 7.256 88.3147 6.584 88.9867 6.136C89.6587 5.672 90.4827 5.44 91.4587 5.44H91.6267C92.6187 5.44 93.4427 5.672 94.0987 6.136C94.7707 6.584 95.2747 7.256 95.6107 8.152C95.9627 9.048 96.1387 10.168 96.1387 11.512H95.2027C95.2027 10.168 95.3707 9.048 95.7067 8.152C96.0587 7.256 96.5707 6.584 97.2427 6.136C97.9147 5.672 98.7387 5.44 99.7147 5.44H99.8827C100.875 5.44 101.707 5.672 102.379 6.136C103.067 6.584 103.587 7.256 103.939 8.152C104.291 9.048 104.467 10.168 104.467 11.512V19H100.627V11.296C100.627 10.576 100.435 9.992 100.051 9.544C99.6827 9.096 99.1547 8.872 98.4667 8.872C97.7787 8.872 97.2347 9.104 96.8347 9.568C96.4347 10.016 96.2347 10.616 96.2347 11.368V19H92.3707V11.296C92.3707 10.576 92.1787 9.992 91.7947 9.544C91.4267 9.096 90.9067 8.872 90.2347 8.872C89.5307 8.872 88.9787 9.104 88.5787 9.568C88.1787 10.016 87.9787 10.616 87.9787 11.368V19H84.1387ZM115.684 19V15.112H115.036V10.888C115.036 10.216 114.876 9.712 114.556 9.376C114.236 9.04 113.724 8.872 113.02 8.872C112.668 8.872 112.204 8.88 111.628 8.896C111.052 8.912 110.46 8.936 109.852 8.968C109.244 9 108.692 9.032 108.196 9.064V5.824C108.564 5.792 108.996 5.76 109.492 5.728C109.988 5.696 110.5 5.672 111.028 5.656C111.556 5.64 112.052 5.632 112.516 5.632C113.86 5.632 114.988 5.824 115.9 6.208C116.828 6.592 117.532 7.176 118.012 7.96C118.492 8.728 118.732 9.72 118.732 10.936V19H115.684ZM111.484 19.336C110.54 19.336 109.708 19.168 108.988 18.832C108.284 18.496 107.732 18.016 107.332 17.392C106.932 16.752 106.732 15.992 106.732 15.112C106.732 14.152 106.98 13.368 107.476 12.76C107.972 12.136 108.668 11.68 109.564 11.392C110.46 11.088 111.492 10.936 112.66 10.936H115.468V13.072H112.636C111.964 13.072 111.444 13.24 111.076 13.576C110.724 13.896 110.548 14.336 110.548 14.896C110.548 15.424 110.724 15.856 111.076 16.192C111.444 16.512 111.964 16.672 112.636 16.672C113.068 16.672 113.452 16.6 113.788 16.456C114.14 16.296 114.428 16.032 114.652 15.664C114.876 15.296 115.004 14.784 115.036 14.128L115.948 15.088C115.868 16 115.644 16.768 115.276 17.392C114.924 18.016 114.428 18.496 113.788 18.832C113.164 19.168 112.396 19.336 111.484 19.336ZM122.614 19V5.848H126.454V19H122.614ZM120.862 8.68V5.848H126.454V8.68H120.862ZM124.102 4.552C123.382 4.552 122.846 4.368 122.494 4C122.158 3.616 121.99 3.136 121.99 2.56C121.99 1.968 122.158 1.488 122.494 1.12C122.846 0.735999 123.382 0.543999 124.102 0.543999C124.822 0.543999 125.35 0.735999 125.686 1.12C126.038 1.488 126.214 1.968 126.214 2.56C126.214 3.136 126.038 3.616 125.686 4C125.35 4.368 124.822 4.552 124.102 4.552ZM134.998 19.408C133.126 19.408 131.662 19.024 130.606 18.256C129.55 17.488 128.99 16.408 128.926 15.016H132.334C132.398 15.432 132.646 15.808 133.078 16.144C133.526 16.464 134.19 16.624 135.07 16.624C135.742 16.624 136.294 16.512 136.726 16.288C137.174 16.048 137.398 15.712 137.398 15.28C137.398 14.896 137.23 14.592 136.894 14.368C136.558 14.128 135.958 13.96 135.094 13.864L134.062 13.768C132.478 13.608 131.286 13.168 130.486 12.448C129.702 11.728 129.31 10.808 129.31 9.688C129.31 8.76 129.542 7.984 130.006 7.36C130.47 6.736 131.11 6.264 131.926 5.944C132.758 5.624 133.702 5.464 134.758 5.464C136.454 5.464 137.822 5.84 138.862 6.592C139.902 7.328 140.446 8.4 140.494 9.808H137.086C137.022 9.376 136.798 9.016 136.414 8.728C136.03 8.424 135.462 8.272 134.71 8.272C134.118 8.272 133.646 8.384 133.294 8.608C132.942 8.832 132.766 9.136 132.766 9.52C132.766 9.888 132.918 10.168 133.222 10.36C133.526 10.552 134.022 10.688 134.71 10.768L135.742 10.864C137.358 11.04 138.614 11.488 139.51 12.208C140.406 12.928 140.854 13.896 140.854 15.112C140.854 15.992 140.614 16.76 140.134 17.416C139.654 18.056 138.974 18.552 138.094 18.904C137.214 19.24 136.182 19.408 134.998 19.408Z" fill="#5061FC"/>
</svg>
